<svg width="16" height="28" viewBox="0 0 16 28" fill="none" xmlns="http://www.w3.org/2000/svg">
<path d="M8 6C3.58172 6 0 9.58172 0 14C0 18.4183 3.58172 22 8 22C12.4183 22 16 18.4183 16 14C15.9949 9.58385 12.4161 6.00514 8 6Z" fill="#1971F5" fill-opacity="0.4"/>
<path d="M12.6177 11.4667L8.05441 17.6594C7.94557 17.8038 7.78329 17.8984 7.60402 17.9219C7.42475 17.9455 7.24353 17.8961 7.10107 17.7847L3.84241 15.1794C3.55485 14.9492 3.50829 14.5296 3.73841 14.242C3.96852 13.9545 4.38818 13.9079 4.67574 14.138L7.39307 16.312L11.5444 10.678C11.6805 10.4738 11.9179 10.3608 12.1623 10.3841C12.4067 10.4073 12.6185 10.5629 12.7137 10.7892C12.8089 11.0155 12.772 11.2758 12.6177 11.4667Z" fill="white"/>
</svg>
